{"buffers":[{"uri":"model.bin","byteLength":2881668}],"asset":{"version":"2.0","generator":"gltfpack 0.19"},"extensionsUsed":["KHR_mesh_quantization"],"extensionsRequired":["KHR_mesh_quantization"],"bufferViews":[{"buffer":0,"byteOffset":0,"byteLength":1245608,"byteStride":8,"target":34962},{"buffer":0,"byteOffset":1245608,"byteLength":622804,"byteStride":4,"target":34962},{"buffer":0,"byteOffset":1868412,"byteLength":1013256,"target":34963}],"accessors":[{"bufferView":0,"byteOffset":0,"componentType":5123,"count":155701,"type":"VEC3","min":[0,0,0],"max":[11263,16383,9557]},{"bufferView":1,"byteOffset":0,"componentType":5120,"count":155701,"type":"VEC3","normalized":true},{"bufferView":2,"byteOffset":0,"componentType":5125,"count":253314,"type":"SCALAR"}],"meshes":[{"primitives":[{"attributes":{"POSITION":0,"NORMAL":1},"indices":2}]}],"nodes":[{"mesh":0,"translation":[-33,-48.5,-28],"scale":[0.00585973263,0.00585973263,0.00585973263]}],"scenes":[{"name":"Scene","nodes":[0]}],"scene":0}