{"buffers":[{"uri":"model_new.bin","byteLength":1698468}],"asset":{"version":"2.0","generator":"gltfpack 0.19"},"extensionsUsed":["KHR_mesh_quantization"],"extensionsRequired":["KHR_mesh_quantization"],"bufferViews":[{"buffer":0,"byteOffset":0,"byteLength":301420,"byteStride":4,"target":34962},{"buffer":0,"byteOffset":301420,"byteLength":602840,"byteStride":8,"target":34962},{"buffer":0,"byteOffset":904260,"byteLength":794208,"target":34963}],"accessors":[{"bufferView":0,"byteOffset":0,"componentType":5120,"count":75355,"type":"VEC3","normalized":true},{"bufferView":1,"byteOffset":0,"componentType":5123,"count":75355,"type":"VEC3","min":[0,0,0],"max":[10632,16383,9021]},{"bufferView":2,"byteOffset":0,"componentType":5125,"count":198552,"type":"SCALAR"}],"materials":[{"name":"mat_0","pbrMetallicRoughness":{"baseColorFactor":[0.603827357,0.603827357,0.603827357,1]},"doubleSided":true}],"meshes":[{"primitives":[{"attributes":{"NORMAL":0,"POSITION":1},"indices":2,"material":0}]}],"nodes":[{"mesh":0,"translation":[-0.0329999998,-0.0542000011,-0.0280000009],"scale":[6.20765422e-06,6.20765422e-06,6.20765422e-06]}],"scenes":[{"nodes":[0]}],"scene":0}