{"buffers":[{"uri":"rpi4.bin","byteLength":1935216}],"asset":{"version":"2.0","generator":"gltfpack 0.19"},"extensionsUsed":["KHR_mesh_quantization"],"extensionsRequired":["KHR_mesh_quantization"],"bufferViews":[{"buffer":0,"byteOffset":0,"byteLength":830656,"byteStride":8,"target":34962},{"buffer":0,"byteOffset":830656,"byteLength":415328,"byteStride":4,"target":34962},{"buffer":0,"byteOffset":1245984,"byteLength":689232,"target":34963}],"accessors":[{"bufferView":0,"byteOffset":0,"componentType":5123,"count":103832,"type":"VEC3","min":[0,0,0],"max":[10658,16383,4307]},{"bufferView":1,"byteOffset":0,"componentType":5120,"count":103832,"type":"VEC3","normalized":true},{"bufferView":2,"byteOffset":0,"componentType":5125,"count":172308,"type":"SCALAR"}],"meshes":[{"primitives":[{"attributes":{"POSITION":0,"NORMAL":1},"indices":2}]}],"nodes":[{"mesh":0,"translation":[-31.3999996,-43.75,2.21000004],"scale":[0.00552401878,0.00552401878,0.00552401878]}],"scenes":[{"name":"Scene","nodes":[0]}],"scene":0}