{"buffers":[{"uri":"top.bin","byteLength":528}],"asset":{"version":"2.0","generator":"gltfpack 0.19"},"extensionsUsed":["KHR_mesh_quantization"],"extensionsRequired":["KHR_mesh_quantization"],"bufferViews":[{"buffer":0,"byteOffset":0,"byteLength":280,"byteStride":8,"target":34962},{"buffer":0,"byteOffset":280,"byteLength":140,"byteStride":4,"target":34962},{"buffer":0,"byteOffset":420,"byteLength":108,"target":34963}],"accessors":[{"bufferView":0,"byteOffset":0,"componentType":5123,"count":35,"type":"VEC3","min":[0,0,0],"max":[6312,16383,1014]},{"bufferView":1,"byteOffset":0,"componentType":5120,"count":35,"type":"VEC3","normalized":true},{"bufferView":2,"byteOffset":0,"componentType":5123,"count":54,"type":"SCALAR"}],"meshes":[{"primitives":[{"attributes":{"POSITION":0,"NORMAL":1},"indices":2}]}],"nodes":[{"mesh":0,"translation":[-15.6999998,-54.2000008,-28],"scale":[0.00497466885,0.00497466885,0.00497466885]}],"scenes":[{"name":"Scene","nodes":[0]}],"scene":0}